<?xml version="1.0" encoding="UTF-8" standalone="no"?>
<!-- Created with Inkscape (http://www.inkscape.org/) -->

<svg
   width="23.257595mm"
   height="4.1065164mm"
   viewBox="0 0 23.257595 4.1065164"
   version="1.1"
   id="svg1"
   xmlns="http://www.w3.org/2000/svg"
   xmlns:svg="http://www.w3.org/2000/svg">
  <defs
     id="defs1" />
  <g
     id="layer1"
     transform="translate(-41.107842,-78.752096)">
    <path
       d="m 41.107843,82.814865 v -0.524934 h 0.650699 v -2.969156 h -0.650699 v -0.524934 h 1.913821 v 0.524934 h -0.650699 v 2.969156 h 0.650699 v 0.524934 z m 2.942874,0 V 78.795841 H 44.6358 l 1.011591,2.996497 q -0.02187,-0.16951 -0.04921,-0.344488 -0.02187,-0.174978 -0.04374,-0.344488 -0.0164,-0.174978 -0.02187,-0.349956 0,-0.174977 0,-0.349955 v -1.60761 h 0.606954 v 4.019024 h -0.585082 l -1.011591,-2.996497 q 0.02187,0.16951 0.04374,0.344488 0.02734,0.174978 0.04375,0.349956 0.02187,0.16951 0.02187,0.344488 0.0055,0.174978 0.0055,0.349955 v 1.60761 z m 3.117852,0 v -4.019024 h 0.606955 v 1.63495 l 0.820209,-1.63495 h 0.661635 l -1.006123,1.8318 1.006123,2.187224 h -0.650699 l -0.431977,-1.044399 -0.240594,-0.563211 -0.158574,0.289808 v 1.317802 z m 2.822577,0 0.814741,-4.019024 h 0.699912 l 0.814741,4.019024 h -0.623359 l -0.164042,-0.896762 h -0.754592 l -0.164042,0.896762 z m 0.880358,-1.421695 h 0.568678 l -0.229658,-1.257654 q -0.01094,-0.07655 -0.02734,-0.153106 -0.01094,-0.08202 -0.02734,-0.158574 -0.0164,0.07655 -0.03281,0.158574 -0.01094,0.07655 -0.02187,0.153106 z m 3.29283,1.46544 q -0.147638,0 -0.295275,-0.03281 -0.147638,-0.03281 -0.278872,-0.103893 -0.125765,-0.07655 -0.229658,-0.191382 -0.09842,-0.114829 -0.158574,-0.251531 -0.06015,-0.142169 -0.08202,-0.289807 -0.02187,-0.147638 -0.02187,-0.295275 v -1.77712 q 0,-0.147637 0.02187,-0.295275 0.02187,-0.153106 0.08202,-0.289807 0.06015,-0.136702 0.158574,-0.251531 0.103893,-0.120297 0.235127,-0.191382 0.131233,-0.07655 0.278871,-0.103893 0.147637,-0.03281 0.295275,-0.03281 0.142169,0 0.278871,0.02734 0.142169,0.02187 0.267935,0.08749 0.125765,0.06015 0.229658,0.164042 0.103893,0.09842 0.164042,0.22419 0.06562,0.125765 0.09842,0.267935 0.03281,0.136701 0.03281,0.278871 v 0.0055 h -0.606955 v -0.0055 q 0,-0.09842 -0.02734,-0.191382 -0.02734,-0.09842 -0.08749,-0.174978 -0.06015,-0.08202 -0.153106,-0.120297 -0.09296,-0.03828 -0.19685,-0.03828 -0.07108,0 -0.147638,0.02187 -0.07108,0.02187 -0.125765,0.07108 -0.05468,0.04921 -0.09296,0.11483 -0.03828,0.06562 -0.06015,0.136701 -0.02187,0.07109 -0.03281,0.147638 -0.0055,0.07108 -0.0055,0.147637 v 1.77712 q 0,0.07655 0.0055,0.153105 0.01094,0.07108 0.03281,0.14217 0.02734,0.07108 0.06562,0.136702 0.03828,0.06562 0.09296,0.114829 0.06015,0.04921 0.131233,0.07108 0.07109,0.02187 0.147638,0.02187 0.114829,0 0.22419,-0.02734 0.109362,-0.03281 0.218723,-0.07655 v -1.110016 h -0.437445 v -0.524934 h 1.044399 v 1.963033 q -0.246062,0.136702 -0.519465,0.218723 -0.267935,0.08202 -0.546806,0.08202 z m 3.052235,0 q -0.147638,0 -0.295275,-0.03281 -0.147638,-0.02734 -0.273403,-0.103893 -0.125766,-0.07655 -0.224191,-0.191382 -0.09296,-0.120297 -0.153105,-0.256999 -0.05468,-0.136701 -0.07655,-0.284339 -0.02187,-0.147638 -0.02187,-0.295275 V 78.79584 h 0.606954 v 2.898072 q 0,0.07109 0.0055,0.147637 0.01094,0.07108 0.02734,0.14217 0.02187,0.06562 0.05468,0.131233 0.03281,0.06562 0.08202,0.120298 0.05468,0.04921 0.125766,0.07655 0.07108,0.02187 0.142169,0.02187 0.07109,0 0.14217,-0.02187 0.07108,-0.02734 0.120297,-0.07655 0.05468,-0.05468 0.08749,-0.120298 0.03281,-0.06562 0.04921,-0.131233 0.02187,-0.07109 0.02734,-0.14217 0.01094,-0.07655 0.01094,-0.147637 V 78.79584 h 0.606955 v 2.898072 q 0,0.147637 -0.02187,0.295275 -0.02187,0.147638 -0.08202,0.284339 -0.05468,0.136702 -0.153105,0.256999 -0.09296,0.114829 -0.218723,0.191382 -0.125765,0.07655 -0.273403,0.103893 -0.147637,0.03281 -0.295275,0.03281 z m 3.013959,0 q -0.147638,0 -0.295275,-0.03281 -0.147638,-0.02734 -0.278871,-0.09842 -0.131234,-0.07655 -0.235127,-0.191382 -0.09842,-0.120297 -0.158574,-0.256999 -0.06015,-0.136701 -0.08202,-0.284339 -0.02187,-0.153106 -0.02187,-0.300743 v -1.77712 q 0,-0.147637 0.02187,-0.295275 0.02187,-0.153106 0.08202,-0.289807 0.06015,-0.136702 0.158574,-0.251531 0.103893,-0.120297 0.235127,-0.191382 0.131233,-0.07655 0.278871,-0.103893 0.147637,-0.03281 0.295275,-0.03281 0.14217,0 0.278871,0.02734 0.14217,0.02187 0.267935,0.08749 0.125765,0.06015 0.229658,0.164042 0.103894,0.09842 0.164042,0.22419 0.06562,0.125765 0.09842,0.267935 0.03281,0.136701 0.03281,0.278871 v 0.0055 h -0.606955 v -0.0055 q 0,-0.09842 -0.02734,-0.191382 -0.02734,-0.09842 -0.08749,-0.174978 -0.06015,-0.08202 -0.153106,-0.120297 -0.09296,-0.03828 -0.19685,-0.03828 -0.07108,0 -0.147638,0.02187 -0.07108,0.02187 -0.125765,0.07108 -0.05468,0.04921 -0.09296,0.11483 -0.03828,0.06562 -0.06015,0.136701 -0.02187,0.07109 -0.03281,0.147638 -0.0055,0.07108 -0.0055,0.147637 v 1.77712 q 0,0.07655 0.0055,0.153105 0.01094,0.07108 0.03281,0.14217 0.02187,0.07108 0.06015,0.136702 0.03828,0.06562 0.09296,0.114829 0.05468,0.04921 0.125765,0.07108 0.07655,0.02187 0.147638,0.02187 0.103893,0 0.19685,-0.03828 0.09296,-0.03828 0.153106,-0.114829 0.06015,-0.08202 0.08749,-0.174978 0.02734,-0.09842 0.02734,-0.19685 v -0.0055 h 0.606955 v 0.0055 q 0,0.14217 -0.03281,0.284339 -0.03281,0.136702 -0.09842,0.262467 -0.06015,0.125765 -0.164042,0.229659 -0.103893,0.09843 -0.229658,0.164041 -0.125765,0.06015 -0.267935,0.08202 -0.136701,0.02734 -0.278871,0.02734 z m 3.046767,0 q -0.153105,0 -0.306211,-0.03281 -0.147638,-0.02734 -0.278871,-0.09842 -0.131234,-0.07655 -0.235127,-0.191382 -0.09842,-0.114829 -0.158574,-0.251531 -0.06015,-0.142169 -0.08749,-0.289807 -0.02187,-0.147638 -0.02187,-0.300743 v -1.77712 q 0,-0.153105 0.02187,-0.300743 0.02734,-0.147638 0.08749,-0.284339 0.06015,-0.14217 0.158574,-0.256999 0.103893,-0.114829 0.235127,-0.185914 0.131233,-0.07655 0.278871,-0.103893 0.153106,-0.03281 0.306211,-0.03281 0.153106,0 0.300744,0.03281 0.153105,0.02734 0.284339,0.103893 0.131233,0.07109 0.229658,0.185914 0.103893,0.114829 0.164042,0.256999 0.06015,0.136701 0.08202,0.284339 0.02734,0.147638 0.02734,0.300743 v 1.77712 q 0,0.153105 -0.02734,0.300743 -0.02187,0.147638 -0.08202,0.289807 -0.06015,0.136702 -0.164042,0.251531 -0.09842,0.114829 -0.229658,0.191382 -0.131234,0.07108 -0.284339,0.09842 -0.147638,0.03281 -0.300744,0.03281 z m 0,-0.524934 q 0.07655,0 0.147638,-0.02187 0.07655,-0.02187 0.131233,-0.07108 0.06015,-0.04921 0.09843,-0.114829 0.03828,-0.06562 0.06015,-0.136702 0.02734,-0.07108 0.03281,-0.14217 0.01094,-0.07655 0.01094,-0.153105 V 79.9168 q 0,-0.07655 -0.01094,-0.147637 -0.0055,-0.07655 -0.03281,-0.147638 -0.02187,-0.07108 -0.06015,-0.136701 -0.03828,-0.06562 -0.09843,-0.11483 -0.05468,-0.04921 -0.131233,-0.07108 -0.07109,-0.02187 -0.147638,-0.02187 -0.07655,0 -0.153105,0.02187 -0.07108,0.02187 -0.131234,0.07108 -0.05468,0.04921 -0.09296,0.11483 -0.03828,0.06562 -0.06562,0.136701 -0.02187,0.07109 -0.03281,0.147638 -0.0055,0.07108 -0.0055,0.147637 v 1.77712 q 0,0.07655 0.0055,0.153105 0.01094,0.07108 0.03281,0.14217 0.02734,0.07108 0.06562,0.136702 0.03828,0.06562 0.09296,0.114829 0.06015,0.04921 0.131234,0.07108 0.07655,0.02187 0.153105,0.02187 z"
       id="text2-9"
       style="font-weight:bold;font-size:5.46806px;font-family:'Iosevka SS04';-inkscape-font-specification:'Iosevka SS04 Bold';letter-spacing:0.296333px;fill:#010101;stroke-width:0.16"
       aria-label="INKAGUCO" />
  </g>
</svg>
